<mxfile host="65bd71144e">
    <diagram id="ghAOeTU5K8rhXzgxk5CM" name="Page-1">
        <mxGraphModel dx="1600" dy="1471" grid="1" gridSize="10" guides="1" tooltips="1" connect="1" arrows="1" fold="1" page="1" pageScale="1" pageWidth="827" pageHeight="1169" math="0" shadow="0">
            <root>
                <mxCell id="0"/>
                <mxCell id="1" parent="0"/>
                <mxCell id="3" value="" style="ellipse;whiteSpace=wrap;html=1;" vertex="1" parent="1">
                    <mxGeometry x="240" y="40" width="80" height="80" as="geometry"/>
                </mxCell>
                <mxCell id="4" value="" style="edgeStyle=none;orthogonalLoop=1;jettySize=auto;html=1;" edge="1" parent="1">
                    <mxGeometry width="80" relative="1" as="geometry">
                        <mxPoint x="279.5" y="140" as="sourcePoint"/>
                        <mxPoint x="280" y="190" as="targetPoint"/>
                        <Array as="points"/>
                    </mxGeometry>
                </mxCell>
                <mxCell id="5" value="window load" style="text;strokeColor=none;align=center;fillColor=none;html=1;verticalAlign=middle;whiteSpace=wrap;rounded=0;" vertex="1" parent="1">
                    <mxGeometry x="230" y="210" width="100" height="30" as="geometry"/>
                </mxCell>
                <mxCell id="45" value="" style="endArrow=classic;html=1;" edge="1" parent="1">
                    <mxGeometry width="50" height="50" relative="1" as="geometry">
                        <mxPoint x="280" y="250" as="sourcePoint"/>
                        <mxPoint x="280" y="390" as="targetPoint"/>
                    </mxGeometry>
                </mxCell>
                <mxCell id="47" value="" style="rounded=1;whiteSpace=wrap;html=1;" vertex="1" parent="1">
                    <mxGeometry x="220.48" y="400" width="120" height="70" as="geometry"/>
                </mxCell>
                <mxCell id="48" value="" style="endArrow=none;html=1;entryX=1.004;entryY=0.672;entryDx=0;entryDy=0;entryPerimeter=0;" edge="1" parent="1">
                    <mxGeometry width="50" height="50" relative="1" as="geometry">
                        <mxPoint x="220" y="429.7" as="sourcePoint"/>
                        <mxPoint x="340.4799999999999" y="430.02000000000004" as="targetPoint"/>
                        <Array as="points">
                            <mxPoint x="310" y="429.7"/>
                        </Array>
                    </mxGeometry>
                </mxCell>
                <mxCell id="49" value="&lt;u&gt;startSpil&lt;/u&gt;" style="text;strokeColor=none;align=center;fillColor=none;html=1;verticalAlign=middle;whiteSpace=wrap;rounded=0;" vertex="1" parent="1">
                    <mxGeometry x="230.48" y="400" width="100" height="30" as="geometry"/>
                </mxCell>
                <mxCell id="51" value="Vis alle liv" style="text;strokeColor=none;align=center;fillColor=none;html=1;verticalAlign=middle;whiteSpace=wrap;rounded=0;" vertex="1" parent="1">
                    <mxGeometry x="230.48" y="430" width="100" height="30" as="geometry"/>
                </mxCell>
                <mxCell id="52" value="" style="rhombus;whiteSpace=wrap;html=1;" vertex="1" parent="1">
                    <mxGeometry x="240.2" y="580" width="80" height="80" as="geometry"/>
                </mxCell>
                <mxCell id="53" value="" style="endArrow=classic;html=1;" edge="1" parent="1">
                    <mxGeometry width="50" height="50" relative="1" as="geometry">
                        <mxPoint x="279.81000000000006" y="470" as="sourcePoint"/>
                        <mxPoint x="280" y="520" as="targetPoint"/>
                    </mxGeometry>
                </mxCell>
                <mxCell id="58" value="" style="rounded=1;whiteSpace=wrap;html=1;" vertex="1" parent="1">
                    <mxGeometry x="220.48" y="530" width="120" height="30" as="geometry"/>
                </mxCell>
                <mxCell id="59" value="VÃ¦lg sten. saks eller papir" style="text;strokeColor=none;align=center;fillColor=none;html=1;verticalAlign=middle;whiteSpace=wrap;rounded=0;" vertex="1" parent="1">
                    <mxGeometry x="230" y="530" width="100" height="30" as="geometry"/>
                </mxCell>
                <mxCell id="61" value="clickSten" style="text;strokeColor=none;align=center;fillColor=none;html=1;verticalAlign=middle;whiteSpace=wrap;rounded=0;" vertex="1" parent="1">
                    <mxGeometry x="300" y="590" width="100" height="30" as="geometry"/>
                </mxCell>
                <mxCell id="62" value="" style="endArrow=classic;html=1;" edge="1" parent="1">
                    <mxGeometry width="50" height="50" relative="1" as="geometry">
                        <mxPoint x="320.2" y="620" as="sourcePoint"/>
                        <mxPoint x="450" y="620" as="targetPoint"/>
                        <Array as="points"/>
                    </mxGeometry>
                </mxCell>
                <mxCell id="66" value="" style="rhombus;whiteSpace=wrap;html=1;" vertex="1" parent="1">
                    <mxGeometry x="240" y="690" width="80" height="80" as="geometry"/>
                </mxCell>
                <mxCell id="67" value="clickSaks" style="text;strokeColor=none;align=center;fillColor=none;html=1;verticalAlign=middle;whiteSpace=wrap;rounded=0;" vertex="1" parent="1">
                    <mxGeometry x="299.8" y="700" width="100" height="30" as="geometry"/>
                </mxCell>
                <mxCell id="69" value="" style="rhombus;whiteSpace=wrap;html=1;" vertex="1" parent="1">
                    <mxGeometry x="240" y="800" width="80" height="80" as="geometry"/>
                </mxCell>
                <mxCell id="70" value="clickPapir" style="text;strokeColor=none;align=center;fillColor=none;html=1;verticalAlign=middle;whiteSpace=wrap;rounded=0;" vertex="1" parent="1">
                    <mxGeometry x="299.8" y="810" width="100" height="30" as="geometry"/>
                </mxCell>
                <mxCell id="75" value="" style="rounded=1;whiteSpace=wrap;html=1;" vertex="1" parent="1">
                    <mxGeometry x="460" y="595" width="170" height="90" as="geometry"/>
                </mxCell>
                <mxCell id="76" value="" style="endArrow=none;html=1;" edge="1" parent="1">
                    <mxGeometry width="50" height="50" relative="1" as="geometry">
                        <mxPoint x="460" y="625" as="sourcePoint"/>
                        <mxPoint x="630" y="625" as="targetPoint"/>
                        <Array as="points">
                            <mxPoint x="550" y="625"/>
                        </Array>
                    </mxGeometry>
                </mxCell>
                <mxCell id="77" value="&lt;u&gt;madeChoice&lt;/u&gt;" style="text;strokeColor=none;align=center;fillColor=none;html=1;verticalAlign=middle;whiteSpace=wrap;rounded=0;" vertex="1" parent="1">
                    <mxGeometry x="500" y="595" width="100" height="30" as="geometry"/>
                </mxCell>
                <mxCell id="78" value="start randChoice-eventlistener" style="text;strokeColor=none;align=center;fillColor=none;html=1;verticalAlign=middle;whiteSpace=wrap;rounded=0;" vertex="1" parent="1">
                    <mxGeometry x="475" y="635" width="145" height="20" as="geometry"/>
                </mxCell>
                <mxCell id="83" value="" style="edgeStyle=elbowEdgeStyle;elbow=vertical;endArrow=classic;html=1;curved=0;rounded=0;endSize=8;startSize=8;" edge="1" parent="1">
                    <mxGeometry width="50" height="50" relative="1" as="geometry">
                        <mxPoint x="530" y="600" as="sourcePoint"/>
                        <mxPoint x="360" y="542.5" as="targetPoint"/>
                        <Array as="points">
                            <mxPoint x="530" y="542.5"/>
                        </Array>
                    </mxGeometry>
                </mxCell>
                <mxCell id="84" value="" style="edgeStyle=elbowEdgeStyle;elbow=vertical;endArrow=classic;html=1;curved=0;rounded=0;endSize=8;startSize=8;" edge="1" parent="1">
                    <mxGeometry width="50" height="50" relative="1" as="geometry">
                        <mxPoint x="810" y="640" as="sourcePoint"/>
                        <mxPoint x="1060" y="655" as="targetPoint"/>
                        <Array as="points">
                            <mxPoint x="980" y="655"/>
                            <mxPoint x="990" y="605"/>
                        </Array>
                    </mxGeometry>
                </mxCell>
                <mxCell id="88" value="" style="rounded=1;whiteSpace=wrap;html=1;" vertex="1" parent="1">
                    <mxGeometry x="1077" y="600" width="170.2" height="90" as="geometry"/>
                </mxCell>
                <mxCell id="89" value="&lt;u&gt;randoWinner&lt;/u&gt;" style="text;strokeColor=none;align=center;fillColor=none;html=1;verticalAlign=middle;whiteSpace=wrap;rounded=0;" vertex="1" parent="1">
                    <mxGeometry x="1077" y="600" width="150" height="30" as="geometry"/>
                </mxCell>
                <mxCell id="90" value="" style="endArrow=none;html=1;" edge="1" parent="1">
                    <mxGeometry width="50" height="50" relative="1" as="geometry">
                        <mxPoint x="1078" y="630" as="sourcePoint"/>
                        <mxPoint x="1248" y="630" as="targetPoint"/>
                        <Array as="points">
                            <mxPoint x="1160.1" y="630"/>
                        </Array>
                    </mxGeometry>
                </mxCell>
                <mxCell id="96" value="" style="ellipse;shape=doubleEllipse;whiteSpace=wrap;html=1;aspect=fixed;" vertex="1" parent="1">
                    <mxGeometry x="1580" y="605" width="80" height="80" as="geometry"/>
                </mxCell>
                <mxCell id="106" value="" style="endArrow=none;html=1;exitX=0.5;exitY=0;exitDx=0;exitDy=0;" edge="1" parent="1" source="66">
                    <mxGeometry width="50" height="50" relative="1" as="geometry">
                        <mxPoint x="230.48000000000002" y="710" as="sourcePoint"/>
                        <mxPoint x="280.48" y="660" as="targetPoint"/>
                    </mxGeometry>
                </mxCell>
                <mxCell id="107" value="" style="endArrow=none;html=1;exitX=0.5;exitY=0;exitDx=0;exitDy=0;" edge="1" parent="1">
                    <mxGeometry width="50" height="50" relative="1" as="geometry">
                        <mxPoint x="279.76" y="800" as="sourcePoint"/>
                        <mxPoint x="280.24000000000024" y="770" as="targetPoint"/>
                    </mxGeometry>
                </mxCell>
                <mxCell id="108" value="" style="endArrow=classic;html=1;" edge="1" parent="1">
                    <mxGeometry width="50" height="50" relative="1" as="geometry">
                        <mxPoint x="279.80000000000007" y="560" as="sourcePoint"/>
                        <mxPoint x="280" y="580" as="targetPoint"/>
                    </mxGeometry>
                </mxCell>
                <mxCell id="109" value="" style="rhombus;whiteSpace=wrap;html=1;" vertex="1" parent="1">
                    <mxGeometry x="670" y="600" width="170" height="70" as="geometry"/>
                </mxCell>
                <mxCell id="110" value="if randoChoice valgte papir" style="text;strokeColor=none;align=center;fillColor=none;html=1;verticalAlign=middle;whiteSpace=wrap;rounded=0;" vertex="1" parent="1">
                    <mxGeometry x="696.25" y="630" width="117.5" height="20" as="geometry"/>
                </mxCell>
                <mxCell id="112" value="mist et liv" style="text;strokeColor=none;align=center;fillColor=none;html=1;verticalAlign=middle;whiteSpace=wrap;rounded=0;" vertex="1" parent="1">
                    <mxGeometry x="1087.1" y="640" width="150" height="30" as="geometry"/>
                </mxCell>
                <mxCell id="113" value="" style="edgeStyle=elbowEdgeStyle;elbow=vertical;endArrow=classic;html=1;curved=0;rounded=0;endSize=8;startSize=8;exitX=1;exitY=0;exitDx=0;exitDy=0;" edge="1" parent="1" source="109">
                    <mxGeometry width="50" height="50" relative="1" as="geometry">
                        <mxPoint x="798" y="610" as="sourcePoint"/>
                        <mxPoint x="360" y="440" as="targetPoint"/>
                        <Array as="points">
                            <mxPoint x="610" y="440"/>
                            <mxPoint x="1346" y="720"/>
                            <mxPoint x="1310" y="720"/>
                            <mxPoint x="1310" y="670"/>
                            <mxPoint x="1300" y="720"/>
                            <mxPoint x="1360" y="450"/>
                            <mxPoint x="1070" y="710"/>
                            <mxPoint x="660" y="1060"/>
                            <mxPoint x="570" y="1060"/>
                            <mxPoint x="670" y="1050"/>
                            <mxPoint x="570" y="900"/>
                            <mxPoint x="1246.25" y="1020"/>
                            <mxPoint x="640" y="1145"/>
                            <mxPoint x="610" y="795"/>
                            <mxPoint x="600" y="1145"/>
                            <mxPoint x="660" y="1145"/>
                            <mxPoint x="610" y="875"/>
                            <mxPoint x="650" y="1095"/>
                            <mxPoint x="630" y="685"/>
                            <mxPoint x="690" y="1065"/>
                            <mxPoint x="710" y="1030"/>
                            <mxPoint x="730" y="740"/>
                        </Array>
                    </mxGeometry>
                </mxCell>
                <mxCell id="115" value="true" style="text;strokeColor=none;align=center;fillColor=none;html=1;verticalAlign=middle;whiteSpace=wrap;rounded=0;" vertex="1" parent="1">
                    <mxGeometry x="897" y="620" width="60" height="30" as="geometry"/>
                </mxCell>
                <mxCell id="116" value="false" style="text;strokeColor=none;align=center;fillColor=none;html=1;verticalAlign=middle;whiteSpace=wrap;rounded=0;" vertex="1" parent="1">
                    <mxGeometry x="740" y="560" width="60" height="30" as="geometry"/>
                </mxCell>
                <mxCell id="118" value="" style="rhombus;whiteSpace=wrap;html=1;" vertex="1" parent="1">
                    <mxGeometry x="670" y="730" width="170" height="70" as="geometry"/>
                </mxCell>
                <mxCell id="119" value="if randoChoice valgte sten" style="text;strokeColor=none;align=center;fillColor=none;html=1;verticalAlign=middle;whiteSpace=wrap;rounded=0;" vertex="1" parent="1">
                    <mxGeometry x="696.25" y="760" width="117.5" height="20" as="geometry"/>
                </mxCell>
                <mxCell id="125" value="" style="endArrow=classic;html=1;" edge="1" parent="1">
                    <mxGeometry width="50" height="50" relative="1" as="geometry">
                        <mxPoint x="320.2" y="730" as="sourcePoint"/>
                        <mxPoint x="450" y="730" as="targetPoint"/>
                        <Array as="points">
                            <mxPoint x="389.99999999999994" y="730"/>
                        </Array>
                    </mxGeometry>
                </mxCell>
                <mxCell id="126" value="" style="rounded=1;whiteSpace=wrap;html=1;" vertex="1" parent="1">
                    <mxGeometry x="465" y="710" width="170" height="90" as="geometry"/>
                </mxCell>
                <mxCell id="127" value="" style="endArrow=none;html=1;" edge="1" parent="1">
                    <mxGeometry width="50" height="50" relative="1" as="geometry">
                        <mxPoint x="465" y="740" as="sourcePoint"/>
                        <mxPoint x="635" y="740" as="targetPoint"/>
                        <Array as="points">
                            <mxPoint x="555" y="740"/>
                        </Array>
                    </mxGeometry>
                </mxCell>
                <mxCell id="128" value="&lt;u&gt;madeChoice&lt;/u&gt;" style="text;strokeColor=none;align=center;fillColor=none;html=1;verticalAlign=middle;whiteSpace=wrap;rounded=0;" vertex="1" parent="1">
                    <mxGeometry x="505" y="710" width="100" height="30" as="geometry"/>
                </mxCell>
                <mxCell id="129" value="start randChoice-eventlistener" style="text;strokeColor=none;align=center;fillColor=none;html=1;verticalAlign=middle;whiteSpace=wrap;rounded=0;" vertex="1" parent="1">
                    <mxGeometry x="480" y="750" width="145" height="20" as="geometry"/>
                </mxCell>
                <mxCell id="130" value="" style="rounded=1;whiteSpace=wrap;html=1;" vertex="1" parent="1">
                    <mxGeometry x="465" y="815" width="170" height="90" as="geometry"/>
                </mxCell>
                <mxCell id="131" value="" style="endArrow=none;html=1;" edge="1" parent="1">
                    <mxGeometry width="50" height="50" relative="1" as="geometry">
                        <mxPoint x="464.9999999999999" y="845" as="sourcePoint"/>
                        <mxPoint x="635" y="845" as="targetPoint"/>
                        <Array as="points">
                            <mxPoint x="555" y="845"/>
                        </Array>
                    </mxGeometry>
                </mxCell>
                <mxCell id="132" value="&lt;u&gt;madeChoice&lt;/u&gt;" style="text;strokeColor=none;align=center;fillColor=none;html=1;verticalAlign=middle;whiteSpace=wrap;rounded=0;" vertex="1" parent="1">
                    <mxGeometry x="505" y="815" width="100" height="30" as="geometry"/>
                </mxCell>
                <mxCell id="133" value="start randChoice-eventlistener" style="text;strokeColor=none;align=center;fillColor=none;html=1;verticalAlign=middle;whiteSpace=wrap;rounded=0;" vertex="1" parent="1">
                    <mxGeometry x="480" y="855" width="145" height="20" as="geometry"/>
                </mxCell>
                <mxCell id="134" value="" style="endArrow=classic;html=1;" edge="1" parent="1">
                    <mxGeometry width="50" height="50" relative="1" as="geometry">
                        <mxPoint x="320.20000000000005" y="844.23" as="sourcePoint"/>
                        <mxPoint x="449.9999999999999" y="844.23" as="targetPoint"/>
                        <Array as="points">
                            <mxPoint x="389.99999999999994" y="844.23"/>
                        </Array>
                    </mxGeometry>
                </mxCell>
                <mxCell id="135" value="" style="rhombus;whiteSpace=wrap;html=1;" vertex="1" parent="1">
                    <mxGeometry x="670" y="835" width="170" height="70" as="geometry"/>
                </mxCell>
                <mxCell id="136" value="if randoChoice valgte saks" style="text;strokeColor=none;align=center;fillColor=none;html=1;verticalAlign=middle;whiteSpace=wrap;rounded=0;" vertex="1" parent="1">
                    <mxGeometry x="696.25" y="865" width="117.5" height="20" as="geometry"/>
                </mxCell>
                <mxCell id="137" value="" style="endArrow=classic;html=1;" edge="1" parent="1">
                    <mxGeometry width="50" height="50" relative="1" as="geometry">
                        <mxPoint x="630" y="635" as="sourcePoint"/>
                        <mxPoint x="659.8" y="635" as="targetPoint"/>
                        <Array as="points"/>
                    </mxGeometry>
                </mxCell>
                <mxCell id="138" value="" style="endArrow=classic;html=1;" edge="1" parent="1">
                    <mxGeometry width="50" height="50" relative="1" as="geometry">
                        <mxPoint x="635" y="764.7" as="sourcePoint"/>
                        <mxPoint x="664.8" y="764.7" as="targetPoint"/>
                        <Array as="points"/>
                    </mxGeometry>
                </mxCell>
                <mxCell id="139" value="" style="endArrow=classic;html=1;" edge="1" parent="1">
                    <mxGeometry width="50" height="50" relative="1" as="geometry">
                        <mxPoint x="635" y="869.7" as="sourcePoint"/>
                        <mxPoint x="664.8" y="869.7" as="targetPoint"/>
                        <Array as="points"/>
                    </mxGeometry>
                </mxCell>
                <mxCell id="143" value="true" style="text;strokeColor=none;align=center;fillColor=none;html=1;verticalAlign=middle;whiteSpace=wrap;rounded=0;" vertex="1" parent="1">
                    <mxGeometry x="753.75" y="690" width="60" height="30" as="geometry"/>
                </mxCell>
                <mxCell id="144" value="true" style="text;strokeColor=none;align=center;fillColor=none;html=1;verticalAlign=middle;whiteSpace=wrap;rounded=0;" vertex="1" parent="1">
                    <mxGeometry x="767" y="805" width="60" height="30" as="geometry"/>
                </mxCell>
                <mxCell id="148" value="" style="endArrow=none;html=1;exitX=0.841;exitY=0.305;exitDx=0;exitDy=0;exitPerimeter=0;" edge="1" parent="1" source="118">
                    <mxGeometry width="50" height="50" relative="1" as="geometry">
                        <mxPoint x="812.64" y="690" as="sourcePoint"/>
                        <mxPoint x="812.64" y="655" as="targetPoint"/>
                        <Array as="points">
                            <mxPoint x="813" y="740"/>
                        </Array>
                    </mxGeometry>
                </mxCell>
                <mxCell id="149" value="" style="endArrow=none;html=1;" edge="1" parent="1">
                    <mxGeometry width="50" height="50" relative="1" as="geometry">
                        <mxPoint x="814" y="860" as="sourcePoint"/>
                        <mxPoint x="813.7499999999999" y="776.8199999999999" as="targetPoint"/>
                        <Array as="points">
                            <mxPoint x="814.11" y="861.8199999999999"/>
                        </Array>
                    </mxGeometry>
                </mxCell>
                <mxCell id="150" value="" style="endArrow=none;html=1;exitX=1;exitY=0.5;exitDx=0;exitDy=0;" edge="1" parent="1" source="118">
                    <mxGeometry width="50" height="50" relative="1" as="geometry">
                        <mxPoint x="1090" y="690" as="sourcePoint"/>
                        <mxPoint x="1670" y="770" as="targetPoint"/>
                    </mxGeometry>
                </mxCell>
                <mxCell id="151" value="" style="endArrow=none;html=1;" edge="1" parent="1">
                    <mxGeometry width="50" height="50" relative="1" as="geometry">
                        <mxPoint x="870" y="870" as="sourcePoint"/>
                        <mxPoint x="870" y="770" as="targetPoint"/>
                    </mxGeometry>
                </mxCell>
                <mxCell id="153" value="" style="endArrow=classic;html=1;" edge="1" parent="1">
                    <mxGeometry width="50" height="50" relative="1" as="geometry">
                        <mxPoint x="1250" y="650" as="sourcePoint"/>
                        <mxPoint x="1370" y="650" as="targetPoint"/>
                    </mxGeometry>
                </mxCell>
                <mxCell id="154" value="(ingen liv tilbage)" style="text;strokeColor=none;align=center;fillColor=none;html=1;verticalAlign=middle;whiteSpace=wrap;rounded=0;" vertex="1" parent="1">
                    <mxGeometry x="1260" y="610" width="100" height="30" as="geometry"/>
                </mxCell>
                <mxCell id="155" value="" style="endArrow=none;html=1;" edge="1" parent="1">
                    <mxGeometry width="50" height="50" relative="1" as="geometry">
                        <mxPoint x="1670" y="770" as="sourcePoint"/>
                        <mxPoint x="1670" y="450" as="targetPoint"/>
                    </mxGeometry>
                </mxCell>
                <mxCell id="156" value="" style="endArrow=none;html=1;" edge="1" parent="1">
                    <mxGeometry width="50" height="50" relative="1" as="geometry">
                        <mxPoint x="800" y="442.5" as="sourcePoint"/>
                        <mxPoint x="1670" y="448" as="targetPoint"/>
                    </mxGeometry>
                </mxCell>
                <mxCell id="157" value="" style="endArrow=none;html=1;entryX=1;entryY=0.5;entryDx=0;entryDy=0;" edge="1" parent="1" target="135">
                    <mxGeometry width="50" height="50" relative="1" as="geometry">
                        <mxPoint x="870" y="870" as="sourcePoint"/>
                        <mxPoint x="880" y="780" as="targetPoint"/>
                    </mxGeometry>
                </mxCell>
                <mxCell id="158" value="" style="rhombus;whiteSpace=wrap;html=1;" vertex="1" parent="1">
                    <mxGeometry x="17.399999999999977" y="1050" width="170" height="70" as="geometry"/>
                </mxCell>
                <mxCell id="159" value="if startSpillet &amp;gt; 3 gange" style="text;strokeColor=none;align=center;fillColor=none;html=1;verticalAlign=middle;whiteSpace=wrap;rounded=0;" vertex="1" parent="1">
                    <mxGeometry x="43.64999999999998" y="1080" width="117.5" height="20" as="geometry"/>
                </mxCell>
                <mxCell id="160" value="" style="endArrow=classic;html=1;exitX=1;exitY=0.5;exitDx=0;exitDy=0;" edge="1" parent="1" source="158">
                    <mxGeometry width="50" height="50" relative="1" as="geometry">
                        <mxPoint x="239.9" y="1040" as="sourcePoint"/>
                        <mxPoint x="269.9" y="1085" as="targetPoint"/>
                    </mxGeometry>
                </mxCell>
                <mxCell id="162" value="" style="rounded=1;whiteSpace=wrap;html=1;" vertex="1" parent="1">
                    <mxGeometry x="289.9" y="1040" width="170.2" height="90" as="geometry"/>
                </mxCell>
                <mxCell id="163" value="&lt;u&gt;gameComplete&lt;/u&gt;" style="text;strokeColor=none;align=center;fillColor=none;html=1;verticalAlign=middle;whiteSpace=wrap;rounded=0;" vertex="1" parent="1">
                    <mxGeometry x="289.9" y="1040" width="150" height="30" as="geometry"/>
                </mxCell>
                <mxCell id="164" value="" style="endArrow=none;html=1;" edge="1" parent="1">
                    <mxGeometry width="50" height="50" relative="1" as="geometry">
                        <mxPoint x="290.9" y="1070" as="sourcePoint"/>
                        <mxPoint x="460.9" y="1070" as="targetPoint"/>
                        <Array as="points">
                            <mxPoint x="372.9999999999999" y="1070"/>
                        </Array>
                    </mxGeometry>
                </mxCell>
                <mxCell id="165" value="vis game-complete-text" style="text;strokeColor=none;align=center;fillColor=none;html=1;verticalAlign=middle;whiteSpace=wrap;rounded=0;" vertex="1" parent="1">
                    <mxGeometry x="299.9999999999999" y="1080" width="150" height="30" as="geometry"/>
                </mxCell>
                <mxCell id="166" value="" style="ellipse;shape=doubleEllipse;whiteSpace=wrap;html=1;aspect=fixed;" vertex="1" parent="1">
                    <mxGeometry x="540" y="1045" width="80" height="80" as="geometry"/>
                </mxCell>
                <mxCell id="167" value="" style="endArrow=classic;html=1;" edge="1" parent="1">
                    <mxGeometry width="50" height="50" relative="1" as="geometry">
                        <mxPoint x="460.1" y="1084.33" as="sourcePoint"/>
                        <mxPoint x="530.1" y="1084.33" as="targetPoint"/>
                    </mxGeometry>
                </mxCell>
                <mxCell id="169" value="" style="rounded=1;whiteSpace=wrap;html=1;" vertex="1" parent="1">
                    <mxGeometry x="1380" y="595" width="170.2" height="90" as="geometry"/>
                </mxCell>
                <mxCell id="170" value="&lt;u&gt;gameOver&lt;/u&gt;" style="text;strokeColor=none;align=center;fillColor=none;html=1;verticalAlign=middle;whiteSpace=wrap;rounded=0;" vertex="1" parent="1">
                    <mxGeometry x="1380" y="595" width="150" height="30" as="geometry"/>
                </mxCell>
                <mxCell id="171" value="" style="endArrow=none;html=1;" edge="1" parent="1">
                    <mxGeometry width="50" height="50" relative="1" as="geometry">
                        <mxPoint x="1381" y="624.9999999999998" as="sourcePoint"/>
                        <mxPoint x="1551" y="624.9999999999998" as="targetPoint"/>
                        <Array as="points">
                            <mxPoint x="1463.1" y="625"/>
                        </Array>
                    </mxGeometry>
                </mxCell>
                <mxCell id="172" value="vis game-over-text" style="text;strokeColor=none;align=center;fillColor=none;html=1;verticalAlign=middle;whiteSpace=wrap;rounded=0;" vertex="1" parent="1">
                    <mxGeometry x="1390.1" y="635" width="150" height="30" as="geometry"/>
                </mxCell>
                <mxCell id="173" value="" style="endArrow=classic;html=1;" edge="1" parent="1">
                    <mxGeometry width="50" height="50" relative="1" as="geometry">
                        <mxPoint x="1550" y="645" as="sourcePoint"/>
                        <mxPoint x="1570" y="644.8800000000001" as="targetPoint"/>
                    </mxGeometry>
                </mxCell>
                <mxCell id="174" value="" style="edgeStyle=elbowEdgeStyle;elbow=vertical;endArrow=classic;html=1;curved=0;rounded=0;endSize=8;startSize=8;" edge="1" parent="1">
                    <mxGeometry width="50" height="50" relative="1" as="geometry">
                        <mxPoint x="230" y="410" as="sourcePoint"/>
                        <mxPoint x="100" y="1033" as="targetPoint"/>
                        <Array as="points">
                            <mxPoint x="60" y="410"/>
                        </Array>
                    </mxGeometry>
                </mxCell>
            </root>
        </mxGraphModel>
    </diagram>
</mxfile>